<svg width="585" height="455" viewBox="0 0 585 455" fill="none" xmlns="http://www.w3.org/2000/svg">
<path d="M295.938 39.2959L300.813 26.202V39.2959H302.785V23.3882H299.971L295.119 36.4599L290.289 23.3882H287.386V39.2959H289.38V26.202L294.233 39.2959H295.938Z" fill="black"/>
<path d="M342.534 39.2959L347.409 26.202V39.2959H349.381V23.3882H346.567L341.715 36.4599L336.885 23.3882H333.982V39.2959H335.976V26.202L340.829 39.2959H342.534Z" fill="black"/>
<path d="M365.832 39.2959L370.707 26.202V39.2959H372.679V23.3882H369.865L365.013 36.4599L360.183 23.3882H357.28V39.2959H359.274V26.202L364.127 39.2959H365.832Z" fill="black"/>
<path d="M389.13 39.2959L394.005 26.202V39.2959H395.977V23.3882H393.163L388.311 36.4599L383.481 23.3882H380.578V39.2959H382.572V26.202L387.424 39.2959H389.13Z" fill="black"/>
<path d="M412.428 39.2959L417.303 26.202V39.2959H419.275V23.3882H416.461L411.609 36.4599L406.779 23.3882H403.876V39.2959H405.87V26.202L410.722 39.2959H412.428Z" fill="black"/>
<path d="M435.726 39.2959L440.601 26.202V39.2959H442.573V23.3882H439.759L434.907 36.4599L430.077 23.3882H427.174V39.2959H429.168V26.202L434.02 39.2959H435.726Z" fill="black"/>
<path d="M459.024 39.2959L463.899 26.202V39.2959H465.871V23.3882H463.057L458.205 36.4599L453.375 23.3882H450.472V39.2959H452.466V26.202L457.319 39.2959H459.024Z" fill="black"/>
<path d="M156.15 66.696L161.025 53.602V66.696H162.997V50.7882H160.183L155.331 63.8599L150.501 50.7882H147.598V66.696H149.592V53.602L154.445 66.696H156.15Z" fill="black"/>
<path d="M202.746 66.696L207.621 53.602V66.696H209.593V50.7882H206.779L201.927 63.8599L197.097 50.7882H194.194V66.696H196.188V53.602L201.041 66.696H202.746Z" fill="black"/>
<path d="M226.044 66.696L230.919 53.602V66.696H232.891V50.7882H230.077L225.225 63.8599L220.395 50.7882H217.492V66.696H219.486V53.602L224.338 66.696H226.044Z" fill="black"/>
<path d="M365.832 66.696L370.707 53.602V66.696H372.679V50.7882H369.865L365.013 63.8599L360.183 50.7882H357.28V66.696H359.274V53.602L364.127 66.696H365.832Z" fill="black"/>
<path d="M459.024 66.696L463.899 53.602V66.696H465.871V50.7882H463.057L458.205 63.8599L453.375 50.7882H450.472V66.696H452.466V53.602L457.319 66.696H459.024Z" fill="black"/>
<path d="M528.918 66.696L533.793 53.602V66.696H535.765V50.7882H532.951L528.099 63.8599L523.269 50.7882H520.366V66.696H522.36V53.602L527.213 66.696H528.918Z" fill="black"/>
<path d="M16.3624 93.096L21.2367 80.002V93.096H23.2085V77.1882H20.3947L15.5426 90.26L10.7128 77.1882H7.8103V93.096H9.80438V80.002L14.6565 93.096H16.3624Z" fill="black"/>
<path d="M179.448 93.096L184.323 80.002V93.096H186.295V77.1882H183.481L178.629 90.26L173.799 77.1882H170.896V93.096H172.89V80.002L177.743 93.096H179.448Z" fill="black"/>
<path d="M226.044 93.096L230.919 80.002V93.096H232.891V77.1882H230.077L225.225 90.26L220.395 77.1882H217.492V93.096H219.486V80.002L224.338 93.096H226.044Z" fill="black"/>
<path d="M319.236 93.096L324.111 80.002V93.096H326.083V77.1882H323.269L318.417 90.26L313.587 77.1882H310.684V93.096H312.678V80.002L317.531 93.096H319.236Z" fill="black"/>
<path d="M365.832 93.096L370.707 80.002V93.096H372.679V77.1882H369.865L365.013 90.26L360.183 77.1882H357.28V93.096H359.274V80.002L364.127 93.096H365.832Z" fill="black"/>
<path d="M389.13 93.096L394.005 80.002V93.096H395.977V77.1882H393.163L388.311 90.26L383.481 77.1882H380.578V93.096H382.572V80.002L387.424 93.096H389.13Z" fill="black"/>
<path d="M412.428 93.096L417.303 80.002V93.096H419.275V77.1882H416.461L411.609 90.26L406.779 77.1882H403.876V93.096H405.87V80.002L410.722 93.096H412.428Z" fill="black"/>
<path d="M459.024 93.096L463.899 80.002V93.096H465.871V77.1882H463.057L458.205 90.26L453.375 77.1882H450.472V93.096H452.466V80.002L457.319 93.096H459.024Z" fill="black"/>
<path d="M505.62 93.096L510.495 80.002V93.096H512.467V77.1882H509.653L504.801 90.26L499.971 77.1882H497.068V93.096H499.062V80.002L503.914 93.096H505.62Z" fill="black"/>
<path d="M575.514 93.096L580.389 80.002V93.096H582.361V77.1882H579.547L574.695 90.26L569.865 77.1882H566.962V93.096H568.956V80.002L573.808 93.096H575.514Z" fill="black"/>
<path d="M365.832 119.496L370.707 106.402V119.496H372.679V103.588H369.865L365.013 116.66L360.183 103.588H357.28V119.496H359.274V106.402L364.127 119.496H365.832Z" fill="black"/>
<path d="M459.024 119.496L463.899 106.402V119.496H465.871V103.588H463.057L458.205 116.66L453.375 103.588H450.472V119.496H452.466V106.402L457.319 119.496H459.024Z" fill="black"/>
<path d="M552.216 119.496L557.091 106.402V119.496H559.063V103.588H556.249L551.397 116.66L546.567 103.588H543.664V119.496H545.658V106.402L550.51 119.496H552.216Z" fill="black"/>
<path d="M179.448 145.896L184.323 132.802V145.896H186.295V129.988H183.481L178.629 143.06L173.799 129.988H170.896V145.896H172.89V132.802L177.743 145.896H179.448Z" fill="black"/>
<path d="M226.044 145.896L230.919 132.802V145.896H232.891V129.988H230.077L225.225 143.06L220.395 129.988H217.492V145.896H219.486V132.802L224.338 145.896H226.044Z" fill="black"/>
<path d="M295.938 145.896L300.813 132.802V145.896H302.785V129.988H299.971L295.119 143.06L290.289 129.988H287.386V145.896H289.38V132.802L294.233 145.896H295.938Z" fill="black"/>
<path d="M342.534 145.896L347.409 132.802V145.896H349.381V129.988H346.567L341.715 143.06L336.885 129.988H333.982V145.896H335.976V132.802L340.829 145.896H342.534Z" fill="black"/>
<path d="M435.726 145.896L440.601 132.802V145.896H442.573V129.988H439.759L434.907 143.06L430.077 129.988H427.174V145.896H429.168V132.802L434.02 145.896H435.726Z" fill="black"/>
<path d="M552.216 145.896L557.091 132.802V145.896H559.063V129.988H556.249L551.397 143.06L546.567 129.988H543.664V145.896H545.658V132.802L550.51 145.896H552.216Z" fill="black"/>
<path d="M575.514 145.896L580.389 132.802V145.896H582.361V129.988H579.547L574.695 143.06L569.865 129.988H566.962V145.896H568.956V132.802L573.808 145.896H575.514Z" fill="black"/>
<path d="M202.746 172.296L207.621 159.202V172.296H209.593V156.388H206.779L201.927 169.46L197.097 156.388H194.194V172.296H196.188V159.202L201.041 172.296H202.746Z" fill="black"/>
<path d="M342.534 172.296L347.409 159.202V172.296H349.381V156.388H346.567L341.715 169.46L336.885 156.388H333.982V172.296H335.976V159.202L340.829 172.296H342.534Z" fill="black"/>
<path d="M389.13 172.296L394.005 159.202V172.296H395.977V156.388H393.163L388.311 169.46L383.481 156.388H380.578V172.296H382.572V159.202L387.424 172.296H389.13Z" fill="black"/>
<path d="M412.428 172.296L417.303 159.202V172.296H419.275V156.388H416.461L411.609 169.46L406.779 156.388H403.876V172.296H405.87V159.202L410.722 172.296H412.428Z" fill="black"/>
<path d="M528.918 172.296L533.793 159.202V172.296H535.765V156.388H532.951L528.099 169.46L523.269 156.388H520.366V172.296H522.36V159.202L527.213 172.296H528.918Z" fill="black"/>
<path d="M295.938 198.696L300.813 185.602V198.696H302.785V182.788H299.971L295.119 195.86L290.289 182.788H287.386V198.696H289.38V185.602L294.233 198.696H295.938Z" fill="black"/>
<path d="M319.236 198.696L324.111 185.602V198.696H326.083V182.788H323.269L318.417 195.86L313.587 182.788H310.684V198.696H312.678V185.602L317.531 198.696H319.236Z" fill="black"/>
<path d="M365.832 198.696L370.707 185.602V198.696H372.679V182.788H369.865L365.013 195.86L360.183 182.788H357.28V198.696H359.274V185.602L364.127 198.696H365.832Z" fill="black"/>
<path d="M459.024 198.696L463.899 185.602V198.696H465.871V182.788H463.057L458.205 195.86L453.375 182.788H450.472V198.696H452.466V185.602L457.319 198.696H459.024Z" fill="black"/>
<path d="M505.62 198.696L510.495 185.602V198.696H512.467V182.788H509.653L504.801 195.86L499.971 182.788H497.068V198.696H499.062V185.602L503.914 198.696H505.62Z" fill="black"/>
<path d="M528.918 198.696L533.793 185.602V198.696H535.765V182.788H532.951L528.099 195.86L523.269 182.788H520.366V198.696H522.36V185.602L527.213 198.696H528.918Z" fill="black"/>
<path d="M342.534 225.096L347.409 212.002V225.096H349.381V209.188H346.567L341.715 222.26L336.885 209.188H333.982V225.096H335.976V212.002L340.829 225.096H342.534Z" fill="black"/>
<path d="M389.13 225.096L394.005 212.002V225.096H395.977V209.188H393.163L388.311 222.26L383.481 209.188H380.578V225.096H382.572V212.002L387.424 225.096H389.13Z" fill="black"/>
<path d="M528.918 225.096L533.793 212.002V225.096H535.765V209.188H532.951L528.099 222.26L523.269 209.188H520.366V225.096H522.36V212.002L527.213 225.096H528.918Z" fill="black"/>
<path d="M156.15 251.496L161.025 238.402V251.496H162.997V235.588H160.183L155.331 248.66L150.501 235.588H147.598V251.496H149.592V238.402L154.445 251.496H156.15Z" fill="black"/>
<path d="M179.448 251.496L184.323 238.402V251.496H186.295V235.588H183.481L178.629 248.66L173.799 235.588H170.896V251.496H172.89V238.402L177.743 251.496H179.448Z" fill="black"/>
<path d="M342.534 251.496L347.409 238.402V251.496H349.381V235.588H346.567L341.715 248.66L336.885 235.588H333.982V251.496H335.976V238.402L340.829 251.496H342.534Z" fill="black"/>
<path d="M389.13 251.496L394.005 238.402V251.496H395.977V235.588H393.163L388.311 248.66L383.481 235.588H380.578V251.496H382.572V238.402L387.424 251.496H389.13Z" fill="black"/>
<path d="M482.322 251.496L487.197 238.402V251.496H489.169V235.588H486.355L481.503 248.66L476.673 235.588H473.77V251.496H475.764V238.402L480.617 251.496H482.322Z" fill="black"/>
<path d="M552.216 251.496L557.091 238.402V251.496H559.063V235.588H556.249L551.397 248.66L546.567 235.588H543.664V251.496H545.658V238.402L550.51 251.496H552.216Z" fill="black"/>
<path d="M575.514 251.496L580.389 238.402V251.496H582.361V235.588H579.547L574.695 248.66L569.865 235.588H566.962V251.496H568.956V238.402L573.808 251.496H575.514Z" fill="black"/>
<path d="M179.448 277.896L184.323 264.802V277.896H186.295V261.988H183.481L178.629 275.06L173.799 261.988H170.896V277.896H172.89V264.802L177.743 277.896H179.448Z" fill="black"/>
<path d="M365.832 277.896L370.707 264.802V277.896H372.679V261.988H369.865L365.013 275.06L360.183 261.988H357.28V277.896H359.274V264.802L364.127 277.896H365.832Z" fill="black"/>
<path d="M389.13 277.896L394.005 264.802V277.896H395.977V261.988H393.163L388.311 275.06L383.481 261.988H380.578V277.896H382.572V264.802L387.424 277.896H389.13Z" fill="black"/>
<path d="M412.428 277.896L417.303 264.802V277.896H419.275V261.988H416.461L411.609 275.06L406.779 261.988H403.876V277.896H405.87V264.802L410.722 277.896H412.428Z" fill="black"/>
<path d="M459.024 277.896L463.899 264.802V277.896H465.871V261.988H463.057L458.205 275.06L453.375 261.988H450.472V277.896H452.466V264.802L457.319 277.896H459.024Z" fill="black"/>
<path d="M552.216 277.896L557.091 264.802V277.896H559.063V261.988H556.249L551.397 275.06L546.567 261.988H543.664V277.896H545.658V264.802L550.51 277.896H552.216Z" fill="black"/>
<path d="M389.13 304.296L394.005 291.202V304.296H395.977V288.388H393.163L388.311 301.46L383.481 288.388H380.578V304.296H382.572V291.202L387.424 304.296H389.13Z" fill="black"/>
<path d="M459.024 304.296L463.899 291.202V304.296H465.871V288.388H463.057L458.205 301.46L453.375 288.388H450.472V304.296H452.466V291.202L457.319 304.296H459.024Z" fill="black"/>
<path d="M505.62 304.296L510.495 291.202V304.296H512.467V288.388H509.653L504.801 301.46L499.971 288.388H497.068V304.296H499.062V291.202L503.914 304.296H505.62Z" fill="black"/>
<path d="M528.918 304.296L533.793 291.202V304.296H535.765V288.388H532.951L528.099 301.46L523.269 288.388H520.366V304.296H522.36V291.202L527.213 304.296H528.918Z" fill="black"/>
<path d="M575.514 304.296L580.389 291.202V304.296H582.361V288.388H579.547L574.695 301.46L569.865 288.388H566.962V304.296H568.956V291.202L573.808 304.296H575.514Z" fill="black"/>
<path d="M319.236 330.696L324.111 317.602V330.696H326.083V314.788H323.269L318.417 327.86L313.587 314.788H310.684V330.696H312.678V317.602L317.531 330.696H319.236Z" fill="black"/>
<path d="M342.534 330.696L347.409 317.602V330.696H349.381V314.788H346.567L341.715 327.86L336.885 314.788H333.982V330.696H335.976V317.602L340.829 330.696H342.534Z" fill="black"/>
<path d="M412.428 330.696L417.303 317.602V330.696H419.275V314.788H416.461L411.609 327.86L406.779 314.788H403.876V330.696H405.87V317.602L410.722 330.696H412.428Z" fill="black"/>
<path d="M552.216 330.696L557.091 317.602V330.696H559.063V314.788H556.249L551.397 327.86L546.567 314.788H543.664V330.696H545.658V317.602L550.51 330.696H552.216Z" fill="black"/>
<path d="M132.852 357.096L137.727 344.002V357.096H139.699V341.188H136.885L132.033 354.26L127.203 341.188H124.3V357.096H126.294V344.002L131.146 357.096H132.852Z" fill="black"/>
<path d="M156.15 357.096L161.025 344.002V357.096H162.997V341.188H160.183L155.331 354.26L150.501 341.188H147.598V357.096H149.592V344.002L154.445 357.096H156.15Z" fill="black"/>
<path d="M412.428 357.096L417.303 344.002V357.096H419.275V341.188H416.461L411.609 354.26L406.779 341.188H403.876V357.096H405.87V344.002L410.722 357.096H412.428Z" fill="black"/>
<path d="M365.832 383.496L370.707 370.402V383.496H372.679V367.588H369.865L365.013 380.66L360.183 367.588H357.28V383.496H359.274V370.402L364.127 383.496H365.832Z" fill="black"/>
<path d="M412.428 383.496L417.303 370.402V383.496H419.275V367.588H416.461L411.609 380.66L406.779 367.588H403.876V383.496H405.87V370.402L410.722 383.496H412.428Z" fill="black"/>
<path d="M575.514 383.496L580.389 370.402V383.496H582.361V367.588H579.547L574.695 380.66L569.865 367.588H566.962V383.496H568.956V370.402L573.808 383.496H575.514Z" fill="black"/>
<path d="M226.044 409.896L230.919 396.802V409.896H232.891V393.988H230.077L225.225 407.06L220.395 393.988H217.492V409.896H219.486V396.802L224.338 409.896H226.044Z" fill="black"/>
<path d="M319.236 409.896L324.111 396.802V409.896H326.083V393.988H323.269L318.417 407.06L313.587 393.988H310.684V409.896H312.678V396.802L317.531 409.896H319.236Z" fill="black"/>
<path d="M342.534 409.896L347.409 396.802V409.896H349.381V393.988H346.567L341.715 407.06L336.885 393.988H333.982V409.896H335.976V396.802L340.829 409.896H342.534Z" fill="black"/>
<path d="M365.832 409.896L370.707 396.802V409.896H372.679V393.988H369.865L365.013 407.06L360.183 393.988H357.28V409.896H359.274V396.802L364.127 409.896H365.832Z" fill="black"/>
<path d="M435.726 409.896L440.601 396.802V409.896H442.573V393.988H439.759L434.907 407.06L430.077 393.988H427.174V409.896H429.168V396.802L434.02 409.896H435.726Z" fill="black"/>
<path d="M482.322 409.896L487.197 396.802V409.896H489.169V393.988H486.355L481.503 407.06L476.673 393.988H473.77V409.896H475.764V396.802L480.617 409.896H482.322Z" fill="black"/>
<path d="M272.64 436.296L277.515 423.202V436.296H279.487V420.388H276.673L271.821 433.46L266.991 420.388H264.088V436.296H266.082V423.202L270.934 436.296H272.64Z" fill="black"/>
<path d="M342.534 436.296L347.409 423.202V436.296H349.381V420.388H346.567L341.715 433.46L336.885 420.388H333.982V436.296H335.976V423.202L340.829 436.296H342.534Z" fill="black"/>
<path d="M412.428 436.296L417.303 423.202V436.296H419.275V420.388H416.461L411.609 433.46L406.779 420.388H403.876V436.296H405.87V423.202L410.722 436.296H412.428Z" fill="black"/>
<path d="M435.726 436.296L440.601 423.202V436.296H442.573V420.388H439.759L434.907 433.46L430.077 420.388H427.174V436.296H429.168V423.202L434.02 436.296H435.726Z" fill="black"/>
</svg>
